<svg xmlns="http://www.w3.org/2000/svg" width="47.627" height="47.627" viewBox="0 0 47.627 47.627">
  <path id="check-circle"
        d="M55.627,31.814A23.814,23.814,0,1,1,31.814,8,23.814,23.814,0,0,1,55.627,31.814ZM29.059,44.423,46.727,26.755a1.536,1.536,0,0,0,0-2.173l-2.173-2.173a1.536,1.536,0,0,0-2.173,0L27.973,36.818l-6.727-6.727a1.537,1.537,0,0,0-2.173,0L16.9,32.264a1.536,1.536,0,0,0,0,2.173l9.986,9.986a1.536,1.536,0,0,0,2.173,0Z"
        transform="translate(-8 -8)" fill="#053b59"/>
</svg>
