<svg xmlns="http://www.w3.org/2000/svg" width="47" height="47" viewBox="0 0 47 47">
  <g id="Group_20472" data-name="Group 20472" transform="translate(-1122.356 -303.356)">
    <circle id="Ellipse_167" data-name="Ellipse 167" cx="23.5" cy="23.5" r="23.5" transform="translate(1122.356 303.356)" fill="#fff"/>
    <g id="coins" transform="translate(1132.603 313.603)">
      <path id="Path_7606" data-name="Path 7606" d="M142.667,15.858c2.918-.565,4.889-1.614,4.889-2.821V10.863a12.506,12.506,0,0,1-4.889,1.757Zm-.239-4.843c3.056-.55,5.128-1.63,5.128-2.867V5.974c-1.808,1.278-4.914,1.966-8.184,2.129A5.7,5.7,0,0,1,142.427,11.015Zm5.128-7.756c0-1.8-4.38-3.259-9.778-3.259S128,1.462,128,3.259s4.38,3.259,9.778,3.259S147.556,5.057,147.556,3.259Z" transform="translate(-121.481)" fill="#879da8"/>
      <path id="Path_7607" data-name="Path 7607" d="M9.778,168.148c5.4,0,9.778-1.823,9.778-4.074S15.176,160,9.778,160,0,161.823,0,164.074,4.38,168.148,9.778,168.148ZM0,172.492v2.175c0,1.8,4.38,3.259,9.778,3.259s9.778-1.462,9.778-3.259v-2.175c-2.1,1.482-5.948,2.175-9.778,2.175S2.1,173.974,0,172.492Zm0-5.342v2.628c0,1.8,4.38,3.259,9.778,3.259s9.778-1.462,9.778-3.259V167.15c-2.1,1.731-5.953,2.628-9.778,2.628S2.1,168.882,0,167.15Z" transform="translate(0 -151.852)" fill="#064d74"/>
    </g>
  </g>
</svg>
