<svg xmlns="http://www.w3.org/2000/svg" width="18.554" height="18.554" viewBox="0 0 18.554 18.554">
  <path id="download" d="M16.38,15.655a.725.725,0,1,1-.725-.725A.727.727,0,0,1,16.38,15.655Zm-3.044-.725a.725.725,0,1,0,.725.725A.727.727,0,0,0,13.336,14.93Zm5.218-1.739V16.96a1.6,1.6,0,0,1-1.594,1.594H1.594A1.6,1.6,0,0,1,0,16.96V13.191A1.6,1.6,0,0,1,1.594,11.6H5.2L3.153,9.552A1.45,1.45,0,0,1,4.178,7.077h1.91V1.45A1.449,1.449,0,0,1,7.538,0h3.479a1.449,1.449,0,0,1,1.45,1.45V7.077h1.91A1.451,1.451,0,0,1,15.4,9.552L13.358,11.6h3.6A1.6,1.6,0,0,1,18.554,13.191Zm-9.484.641a.291.291,0,0,0,.409,0l5.1-5.1a.291.291,0,0,0-.207-.5H11.306V1.45a.291.291,0,0,0-.29-.29H7.538a.291.291,0,0,0-.29.29V8.237H4.178a.292.292,0,0,0-.207.5Zm8.324-.641a.436.436,0,0,0-.435-.435H12.2l-1.9,1.9a1.452,1.452,0,0,1-2.051,0l-1.9-1.9H1.594a.436.436,0,0,0-.435.435V16.96a.436.436,0,0,0,.435.435H16.96a.436.436,0,0,0,.435-.435Z" fill="#053b59"/>
</svg>
