<svg xmlns="http://www.w3.org/2000/svg" width="17.549" height="18.291" viewBox="0 0 17.549 18.291">
  <g id="edit_4_" data-name="edit (4)" transform="translate(-7.838 0)">
    <g id="Group_15999" data-name="Group 15999" transform="translate(7.838 0)">
      <g id="Group_15998" data-name="Group 15998" transform="translate(0 0)">
        <path id="Path_5890" data-name="Path 5890"
              d="M26.471,14.633h.1l4.77-1.038a.47.47,0,0,0,.247-.124L39.67,5.389a3.115,3.115,0,0,0,.915-2.225A3.213,3.213,0,0,0,39.67.915,3.114,3.114,0,0,0,37.446,0,3.04,3.04,0,0,0,35.221.94L27.163,9.022a.445.445,0,0,0-.148.222l-1.038,4.77a.544.544,0,0,0,.148.47A.494.494,0,0,0,26.471,14.633ZM37.446.989A2.15,2.15,0,0,1,39.6,3.14q0,.012,0,.025a2.076,2.076,0,0,1-.618,1.508l-3.04-3.065A2.126,2.126,0,0,1,37.446.989Zm-2.2,1.335,3.04,3.04-7.044,7.02L28.2,9.368Zm-7.44,8.033L30.253,12.8l-3.139.692Z"
              transform="translate(-25.112 0)" fill="#4c4c4c"/>
        <path id="Path_5891" data-name="Path 5891"
              d="M24.893,365.717H8.332a.494.494,0,1,0,0,.989h16.56a.494.494,0,1,0,0-.989Z"
              transform="translate(-7.838 -348.415)" fill="#4c4c4c"/>
      </g>
    </g>
  </g>
</svg>
