<svg xmlns="http://www.w3.org/2000/svg" width="27.135" height="24.874" viewBox="0 0 27.135 24.874">
  <path id="iconmonstr-help-5"
        d="M13.567,1C6.4,1,0,5.778,0,12.314a9.963,9.963,0,0,0,2.314,6.36c.062,2.069-1.157,5.038-2.253,7.2,2.942-.531,7.124-1.7,9.02-2.867,10.442,2.54,18.054-3.85,18.054-10.692C27.135,5.743,20.689,1,13.567,1Zm0,16.959A1.158,1.158,0,1,1,14.725,16.8,1.159,1.159,0,0,1,13.567,17.959Zm1.816-5.493a2.453,2.453,0,0,0-.866,2.018H12.66a3.409,3.409,0,0,1,1.326-3.213c.53-.5.95-.9.891-1.688a1.224,1.224,0,0,0-1.263-1.135c-.657,0-1.426.488-1.426,1.864H10.327c0-2.223,1.306-3.66,3.325-3.66a3.268,3.268,0,0,1,2.363.885,2.9,2.9,0,0,1,.791,2.129,4.144,4.144,0,0,1-1.423,2.8Z"
        transform="translate(0 -1)" fill="#fff"/>
</svg>
