<svg xmlns="http://www.w3.org/2000/svg" width="60.221" height="55.202" viewBox="0 0 60.221 55.202">
  <path id="iconmonstr-product-3" d="M28.856,56.2,7.528,44.823V34.9l13.55,7.834,7.779-8.546Zm2.509,0V34.1L39.3,42.492,52.693,35.07v9.753ZM5.422,30.794,0,27.673l7.528-8.285L0,12.3,21.875,1l8.067,5.984L38.285,1,60.221,12.444,52.706,19.4l7.515,8.639L54.6,31.15v0L39.783,39.353l-8.4-8.885,18.608-9.941L30.113,9.556l-19.88,10.97,18.623,9.879v.06l-8.273,9.088L7.528,32.006l-.4-.231-1.7-.986v.005Z" transform="translate(0 -1)" fill="#075f8f" fill-rule="evenodd"/>
</svg>
