<svg xmlns="http://www.w3.org/2000/svg" width="18.485" height="16.945" viewBox="0 0 18.485 16.945">
  <path id="iconmonstr-product-3"
        d="M8.857,17.945,2.311,14.452V11.407l4.159,2.4,2.388-2.623Zm.77,0V11.161l2.435,2.575,4.111-2.278v2.994Zm-7.963-7.8L0,9.187,2.311,6.644,0,4.47,6.715,1,9.191,2.837,11.752,1l6.733,3.513L16.178,6.647,18.485,9.3l-1.727.956h0l-4.547,2.519L9.633,10.045l5.712-3.052-6.1-3.367-6.1,3.367,5.716,3.032v.018l-2.539,2.79L2.311,10.517l-.123-.071-.523-.3v0Z"
        transform="translate(0 -1)" fill="#fff" fill-rule="evenodd"/>
</svg>
