<svg xmlns="http://www.w3.org/2000/svg" width="11.953" height="14.31" viewBox="0 0 11.953 14.31">
  <path id="pause" d="M5.123,32.533V43.776A1.424,1.424,0,0,1,3.842,45.31H1.281A1.424,1.424,0,0,1,0,43.776V32.533A1.424,1.424,0,0,1,1.281,31H3.842A1.424,1.424,0,0,1,5.123,32.533ZM3.842,43.585V32.725a.179.179,0,0,0-.16-.192H1.441a.179.179,0,0,0-.16.192v10.86a.179.179,0,0,0,.16.192H3.682A.179.179,0,0,0,3.842,43.585Zm8.111-11.052V43.776a1.424,1.424,0,0,1-1.281,1.533H8.111A1.424,1.424,0,0,1,6.83,43.776V32.533A1.424,1.424,0,0,1,8.111,31h2.561A1.424,1.424,0,0,1,11.953,32.533ZM10.672,43.585V32.725a.179.179,0,0,0-.16-.192H8.271a.179.179,0,0,0-.16.192v10.86a.179.179,0,0,0,.16.192h2.241A.179.179,0,0,0,10.672,43.585Z" transform="translate(0 -31)" fill="#4c4c4c"/>
</svg>
