<svg xmlns="http://www.w3.org/2000/svg" width="47" height="47" viewBox="0 0 47 47">
  <g id="Group_20471" data-name="Group 20471" transform="translate(-906.75 -302.75)">
    <circle id="Ellipse_166" data-name="Ellipse 166" cx="23.5" cy="23.5" r="23.5" transform="translate(906.75 302.75)"
            fill="#fff"/>
    <g id="piggy-bank" transform="translate(914.381 312.595)">
      <path id="Path_7608" data-name="Path 7608"
            d="M120.924,102.876h-1.585a8.588,8.588,0,0,0-2.008-2.818L118.346,96h-1.719a5.123,5.123,0,0,0-3.921,1.844,8.511,8.511,0,0,0-1.235-.125h-6.876a8.595,8.595,0,0,0-5.157,15.47v4.3a.859.859,0,0,0,.859.859h3.438a.859.859,0,0,0,.859-.859v-2.578h6.876v2.578a.859.859,0,0,0,.859.859h3.438a.859.859,0,0,0,.859-.859V113.15a8.614,8.614,0,0,0,1.68-1.68h2.617a.859.859,0,0,0,.859-.859v-6.876A.859.859,0,0,0,120.924,102.876Zm-6.876,3.438a.859.859,0,1,1,.859-.859A.859.859,0,0,1,114.049,106.313Z"
            transform="translate(-90.843 -90.843)" fill="#064d74"/>
      <path id="Path_7609" data-name="Path 7609"
            d="M2.753,13.726a1.289,1.289,0,0,1-1.007-1.52,1.324,1.324,0,0,1,1.315-1.032h.054a.322.322,0,0,0,.322-.322V9.776a.322.322,0,0,0-.322-.322,3.08,3.08,0,0,0-3.09,2.612A2.935,2.935,0,0,0,0,12.454,3.012,3.012,0,0,0,3.008,15.47H5.157a8.329,8.329,0,0,1,.181-1.719H3.008a1.269,1.269,0,0,1-.255-.026Zm20.452.026a.859.859,0,1,0,.859.859A.859.859,0,0,0,23.205,13.751ZM16.464,0a5.157,5.157,0,0,0-4.771,7.118,8.736,8.736,0,0,1,2.058-.242h6.876a5.6,5.6,0,0,1,.683.047A5.16,5.16,0,0,0,16.464,0Z"
            transform="translate(0 0)" fill="#879da8"/>
    </g>
  </g>
</svg>
