<svg xmlns="http://www.w3.org/2000/svg" width="12.655" height="14.463" viewBox="0 0 12.655 14.463">
  <path id="trash" d="M12.429,1.808H9.492L8.542.542A1.356,1.356,0,0,0,7.458,0H5.2A1.356,1.356,0,0,0,4.113.542L3.164,1.808H.226A.226.226,0,0,0,0,2.034v.452a.226.226,0,0,0,.226.226H.76L1.7,13.229a1.356,1.356,0,0,0,1.35,1.234H9.607a1.356,1.356,0,0,0,1.35-1.234L11.9,2.712h.534a.226.226,0,0,0,.226-.226V2.034A.226.226,0,0,0,12.429,1.808ZM4.836,1.085A.455.455,0,0,1,5.2.9h2.26a.455.455,0,0,1,.362.181l.542.723H4.294Zm5.22,12.062a.449.449,0,0,1-.449.412H3.048a.449.449,0,0,1-.449-.412L1.667,2.712h9.322Z" fill="#4c4c4c"/>
</svg>
