<svg xmlns="http://www.w3.org/2000/svg" width="17.221" height="14.608" viewBox="0 0 17.221 14.608">
  <g id="team_2_" data-name="team (2)" transform="translate(0 -38.84)">
    <g id="Group_14960" data-name="Group 14960" transform="translate(13.403 46.727)">
      <g id="Group_14959" data-name="Group 14959">
        <path id="Path_1158" data-name="Path 1158" d="M399.826,273.32h-1.332a3.464,3.464,0,0,1,.21,1.191v5.033a1.485,1.485,0,0,1-.086.5h2.2a1.493,1.493,0,0,0,1.492-1.492v-2.744A2.489,2.489,0,0,0,399.826,273.32Z" transform="translate(-398.494 -273.32)" fill="#fff"/>
      </g>
    </g>
    <g id="Group_14962" data-name="Group 14962" transform="translate(0 46.727)">
      <g id="Group_14961" data-name="Group 14961">
        <path id="Path_1159" data-name="Path 1159" d="M3.608,274.512a3.464,3.464,0,0,1,.21-1.191H2.486A2.489,2.489,0,0,0,0,275.807v2.744a1.493,1.493,0,0,0,1.492,1.492h2.2a1.485,1.485,0,0,1-.086-.5Z" transform="translate(0 -273.321)" fill="#fff"/>
      </g>
    </g>
    <g id="Group_14964" data-name="Group 14964" transform="translate(4.602 45.432)">
      <g id="Group_14963" data-name="Group 14963">
        <path id="Path_1160" data-name="Path 1160" d="M142.36,234.815h-3.045a2.489,2.489,0,0,0-2.486,2.486v5.034a.5.5,0,0,0,.5.5h7.022a.5.5,0,0,0,.5-.5V237.3A2.489,2.489,0,0,0,142.36,234.815Z" transform="translate(-136.829 -234.815)" fill="#fff"/>
      </g>
    </g>
    <g id="Group_14966" data-name="Group 14966" transform="translate(5.621 38.84)">
      <g id="Group_14965" data-name="Group 14965" transform="translate(0 0)">
        <path id="Path_1161" data-name="Path 1161" d="M170.1,38.84a2.989,2.989,0,1,0,2.99,2.99A2.993,2.993,0,0,0,170.1,38.84Z" transform="translate(-167.114 -38.84)" fill="#fff"/>
      </g>
    </g>
    <g id="Group_14968" data-name="Group 14968" transform="translate(1.125 41.627)">
      <g id="Group_14967" data-name="Group 14967" transform="translate(0 0)">
        <path id="Path_1162" data-name="Path 1162" d="M35.679,121.689a2.235,2.235,0,1,0,2.236,2.236A2.238,2.238,0,0,0,35.679,121.689Z" transform="translate(-33.443 -121.689)" fill="#fff"/>
      </g>
    </g>
    <g id="Group_14970" data-name="Group 14970" transform="translate(11.625 41.627)">
      <g id="Group_14969" data-name="Group 14969" transform="translate(0 0)">
        <path id="Path_1163" data-name="Path 1163" d="M347.843,121.689a2.236,2.236,0,1,0,2.236,2.236A2.238,2.238,0,0,0,347.843,121.689Z" transform="translate(-345.607 -121.689)" fill="#fff"/>
      </g>
    </g>
  </g>
</svg>
