<svg xmlns="http://www.w3.org/2000/svg" width="47" height="47" viewBox="0 0 47 47">
  <g id="Group_20473" data-name="Group 20473" transform="translate(-1338.26 -303.248)">
    <circle id="Ellipse_168" data-name="Ellipse 168" cx="23.5" cy="23.5" r="23.5" transform="translate(1338.26 303.248)" fill="#fff"/>
    <g id="wallet" transform="translate(1349.312 315.818)">
      <path id="Path_7604" data-name="Path 7604" d="M19.924,43.494a1.533,1.533,0,1,0,1.533,1.533A1.533,1.533,0,0,0,19.924,43.494ZM20.69,32H3.065A3.065,3.065,0,0,0,0,35.065,1.533,1.533,0,0,0,1.533,36.6h2.3a.766.766,0,1,1,0-1.533H22.223a.766.766,0,0,0,.766-.766A2.3,2.3,0,0,0,20.69,32Z" transform="translate(0 -32)" fill="#879da8"/>
      <path id="Path_7605" data-name="Path 7605" d="M22.088,97.533H1.533A1.533,1.533,0,0,1,0,96v15.326a3.065,3.065,0,0,0,3.065,3.065H22.088a2.372,2.372,0,0,0,2.433-2.3V99.831A2.371,2.371,0,0,0,22.088,97.533Zm-2.165,9.962a1.533,1.533,0,1,1,1.533-1.533A1.533,1.533,0,0,1,19.924,107.494Z" transform="translate(0 -92.935)" fill="#064d74"/>
    </g>
  </g>
</svg>
