<svg xmlns="http://www.w3.org/2000/svg" width="18.068" height="18.067" viewBox="0 0 18.068 18.067">
  <path id="Path_7615" data-name="Path 7615" d="M11.024,9.049l6.755-6.756a.99.99,0,0,0,0-1.4L17.187.3a.991.991,0,0,0-1.4,0L9.034,7.06,2.279.3a.99.99,0,0,0-1.4,0L.289.9a.989.989,0,0,0,0,1.4L7.045,9.049.289,15.8a.991.991,0,0,0,0,1.4l.592.592a.99.99,0,0,0,1.4,0l6.756-6.755,6.755,6.755a.98.98,0,0,0,.7.289h0a.981.981,0,0,0,.7-.289l.592-.592a.991.991,0,0,0,0-1.4Z" transform="translate(0 -0.016)" fill="#ef4560"/>
</svg>
